<?xml version="1.0" standalone="no"?>
<!DOCTYPE svg PUBLIC "-//W3C//DTD SVG 20010904//EN"
 "http://www.w3.org/TR/2001/REC-SVG-20010904/DTD/svg10.dtd">
<svg version="1.0" xmlns="http://www.w3.org/2000/svg"
 width="1280.000000pt" height="1280.000000pt" viewBox="0 0 1280.000000 1280.000000"
 preserveAspectRatio="xMidYMid meet">
<metadata>
Created by potrace 1.16, written by Peter Selinger 2001-2019
</metadata>
<g transform="translate(0.000000,1280.000000) scale(0.100000,-0.100000)"
fill="#000000" stroke="none">
<path d="M5302 12291 c-201 -50 -368 -187 -458 -376 -71 -149 -68 -115 -72
-887 l-3 -698 1598 -2 1598 -3 77 -22 c121 -34 225 -82 319 -145 257 -172 421
-439 459 -748 13 -113 14 -5660 0 -5780 -29 -257 -135 -467 -324 -648 -146
-138 -307 -221 -505 -262 -97 -20 -131 -20 -1660 -20 l-1562 0 3 -812 c4 -909
0 -855 78 -1013 92 -187 249 -313 454 -365 78 -20 113 -20 2836 -20 2709 0
2758 0 2834 20 229 58 412 229 494 459 l27 76 0 5355 0 5355 -28 80 c-82 231
-260 396 -494 456 -75 19 -134 19 -2837 18 -2616 0 -2765 -1 -2834 -18z"/>
<path d="M1615 9739 c-150 -52 -260 -170 -301 -324 -11 -41 -14 -552 -14
-2901 0 -2592 1 -2855 16 -2905 42 -139 123 -236 251 -297 l78 -37 3110 -3
c2821 -2 3114 -1 3165 14 166 48 299 195 330 365 7 36 9 1005 8 2899 l-3 2845
-24 60 c-48 121 -126 206 -240 263 l-75 37 -3120 2 -3121 2 -60 -20z"/>
</g>
</svg>
